<svg width="24" height="21" viewBox="0 0 24 21" fill="none" xmlns="http://www.w3.org/2000/svg">
<path fill-rule="evenodd" clip-rule="evenodd" d="M0.547455 0.594634C0.904881 0.2202 1.40057 0 1.92857 0H17.7857C18.3137 0 18.8095 0.2202 19.1669 0.594634C19.5226 0.967389 19.7143 1.46275 19.7143 1.96939V4.08163H22.9286C23.5203 4.08163 24 4.56132 24 5.15306V17.6837C24 18.5475 23.6729 19.3855 23.076 20.0109C22.4774 20.6379 21.6547 21 20.7857 21H2.78571C2.03038 21 1.31668 20.6853 0.798507 20.1423C0.281955 19.6011 0 18.8774 0 18.1327V1.96939C0 1.46275 0.19165 0.967389 0.547455 0.594634ZM17.7794 18.8571H2.78571C2.63172 18.8571 2.47337 18.7935 2.34855 18.6627C2.22213 18.5302 2.14286 18.3405 2.14286 18.1327V2.14286H17.5714V17.6837C17.5714 18.0867 17.6427 18.4843 17.7794 18.8571ZM5.14286 5.78571C5.14286 5.31233 5.52662 4.92857 6 4.92857H13.7143C14.1877 4.92857 14.5714 5.31233 14.5714 5.78571V10.0714C14.5714 10.5448 14.1877 10.9286 13.7143 10.9286H6C5.52662 10.9286 5.14286 10.5448 5.14286 10.0714V5.78571ZM6.21429 14.1429C5.62255 14.1429 5.14286 14.6225 5.14286 15.2143C5.14286 15.8061 5.62255 16.2857 6.21429 16.2857H13.5C14.0917 16.2857 14.5714 15.8061 14.5714 15.2143C14.5714 14.6225 14.0917 14.1429 13.5 14.1429H6.21429Z" fill="#231711"/>
</svg>
