<svg width="24" height="24" viewBox="0 0 24 24" fill="none" xmlns="http://www.w3.org/2000/svg">
<path fill-rule="evenodd" clip-rule="evenodd" d="M12 6.10352e-05C18.6274 6.10352e-05 24 5.37264 24 12C24 18.6274 18.6274 24.0001 12 24.0001C5.37263 24.0001 0 18.6274 0 12C0 5.37264 5.37263 6.10352e-05 12 6.10352e-05ZM21.857 12C21.857 6.55615 17.4439 2.14301 12 2.14301C6.55622 2.14301 2.14295 6.55615 2.14295 12C2.14295 14.9209 3.41346 17.545 5.43177 19.35C7.0042 17.4766 9.36324 16.2856 12.0004 16.2856C14.6374 16.2856 16.9963 17.4764 18.5687 19.3495C20.5868 17.5446 21.857 14.9207 21.857 12ZM12.0003 6.21377C13.7756 6.21377 15.2148 7.65292 15.2148 9.42819C15.2148 11.2035 13.7756 12.6426 12.0003 12.6426C10.2251 12.6426 8.78591 11.2035 8.78591 9.42819C8.78591 7.65292 10.2251 6.21377 12.0003 6.21377ZM17.3577 9.42819C17.3577 6.4694 14.9591 4.07082 12.0003 4.07082C9.04154 4.07082 6.64297 6.4694 6.64297 9.42819C6.64297 12.387 9.04154 14.7856 12.0003 14.7856C14.9591 14.7856 17.3577 12.387 17.3577 9.42819Z" fill="#231711"/>
</svg>
